<svg width="32" height="32" viewBox="0 0 32 32" fill="none" xmlns="http://www.w3.org/2000/svg">
<rect width="32" height="32" rx="16" fill="#D9D9D9"/>
<path d="M7.95312 12.0092C8.52295 10.8488 9.32806 9.86795 10.3427 9.05239C11.7177 7.94223 13.2948 7.27397 15.0631 7.06919C17.1402 6.82847 19.0923 7.2129 20.8974 8.26917C21.3459 8.53144 21.765 8.82964 22.1657 9.15299C22.265 9.23203 22.2539 9.27873 22.1694 9.35778C21.3496 10.1554 20.5298 10.953 19.7173 11.7577C19.6217 11.8512 19.5702 11.844 19.4673 11.7685C17.0851 9.97573 13.611 10.4608 11.8353 12.832C11.5228 13.2487 11.2691 13.6978 11.0927 14.1864C11.078 14.2296 11.0486 14.2691 11.0265 14.3122C10.5523 13.9601 10.0744 13.608 9.60378 13.2523C9.05234 12.8392 8.50089 12.426 7.95312 12.0092Z" fill="white"/>
<path d="M11.0263 17.6822C11.1844 18.0235 11.3167 18.3792 11.5152 18.6989C12.3498 20.0354 13.5409 20.8941 15.1107 21.1995C16.526 21.4761 17.8863 21.2893 19.1546 20.5959C19.1987 20.5743 19.2428 20.5528 19.2833 20.5312C19.3053 20.5528 19.3237 20.5779 19.3458 20.5959C20.2942 21.3145 21.2464 22.033 22.1949 22.7516C21.739 23.1935 21.2207 23.5492 20.6692 23.8581C19.07 24.7491 17.3385 25.1084 15.515 24.9719C13.2431 24.7994 11.2836 23.9228 9.66605 22.342C8.95653 21.6486 8.37199 20.8654 7.94922 19.9708C8.34258 19.6762 8.73595 19.3851 9.12931 19.0905C9.76164 18.6199 10.394 18.1528 11.0263 17.6822Z" fill="white"/>
<path d="M22.1987 22.7516C21.2502 22.033 20.298 21.3145 19.3495 20.5959C19.3275 20.578 19.3054 20.5528 19.287 20.5313C19.6142 20.2834 19.9488 20.0426 20.2171 19.7265C20.6657 19.2019 20.9634 18.6091 21.1178 17.9445C21.1362 17.8618 21.1215 17.8331 21.037 17.8367C20.9928 17.8403 20.9524 17.8367 20.9083 17.8367C19.4084 17.8367 17.9048 17.8331 16.4048 17.8403C16.2394 17.8403 16.2026 17.7972 16.2063 17.6427C16.2137 16.6008 16.2137 15.5589 16.2063 14.517C16.2063 14.384 16.2431 14.3481 16.3791 14.3481C19.129 14.3517 21.8788 14.3517 24.6324 14.3481C24.75 14.3481 24.7978 14.3769 24.8272 14.499C25.0515 15.487 25.0368 16.4786 24.9008 17.4774C24.7905 18.275 24.5919 19.0474 24.2868 19.7947C23.8346 20.8977 23.1692 21.8606 22.2943 22.6869C22.2612 22.7121 22.2281 22.73 22.1987 22.7516Z" fill="white"/>
<path d="M11.0264 17.6822C10.3941 18.1529 9.76174 18.6199 9.12941 19.0906C8.73605 19.3816 8.34268 19.6762 7.94932 19.9708C7.64419 19.4175 7.44567 18.8319 7.28391 18.2283C6.9751 17.0607 6.92731 15.875 7.09642 14.6858C7.22876 13.7517 7.50449 12.8535 7.94932 12.0128C8.50076 12.426 9.04853 12.8428 9.59998 13.2559C10.0742 13.6116 10.5485 13.9637 11.0227 14.3158C10.9418 14.7002 10.8279 15.0775 10.7911 15.4727C10.7249 16.1912 10.7948 16.8918 11.0043 17.5816C11.019 17.6104 11.0227 17.6463 11.0264 17.6822Z" fill="white"/>
</svg>
